# xmcd
#
# Track frame offsets: 
#        150
#        6601
#        18806
#        42527
#        60450
#        75314
#        98996
#        129005
#        141706
#        165283
#        190105
#        204202
#
# Disc length: 2982 seconds
#
# Revision: 0
# Processed by: cddbd v1.5.2PL0 Copyright (c) Steve Scherf et al.
# Submitted via: ExactAudioCopy v1.0b3
#
DISCID=920ba40c
DTITLE=Satans Kadaver - Det Allseende Brunögat
DYEAR=2016
DGENRE=Rock
TTITLE0=Extremt Ondskefullt Intro
TTITLE1=Oculus Serpens
TTITLE2=Baron Lördag
TTITLE3=Kniv i Obbola
TTITLE4=Horusögat
TTITLE5=Alice i Underland
TTITLE6=Hellas Heta Herrar
TTITLE7=Manspattar
TTITLE8=Krogens Drottning
TTITLE9=Kåta
TTITLE10=De Dödas Kör
TTITLE11=Kraken Perversion
EXTD=
EXTT0=
EXTT1=
EXTT2=
EXTT3=
EXTT4=
EXTT5=
EXTT6=
EXTT7=
EXTT8=
EXTT9=
EXTT10=
EXTT11=
PLAYORDER=
